PathFileType	4	(X/Y/Z)	19_2_87_p0_0-279_filt_butterworth.trc
DataRate	CameraRate	NumFrames	NumMarkers	Units	OrigDataRate	OrigDataStartFrame	OrigNumFrames
60.0	60.0	7	27	m	60.0	139	279
Frame#	Time	RHip			RKnee			RAnkle			RBigToe			RSmallToe			RHeel			LHip			LKnee			LAnkle			LBigToe			LSmallToe			LHeel			Neck			Head			Nose			RShoulder			RElbow			RWrist			RThumb			RIndex			RPinky			LShoulder			LElbow			LWrist			LThumb			LIndex			LPinky			
		X1	Y1	Z1	X2	Y2	Z2	X3	Y3	Z3	X4	Y4	Z4	X5	Y5	Z5	X6	Y6	Z6	X7	Y7	Z7	X8	Y8	Z8	X9	Y9	Z9	X10	Y10	Z10	X11	Y11	Z11	X12	Y12	Z12	X13	Y13	Z13	X14	Y14	Z14	X15	Y15	Z15	X16	Y16	Z16	X17	Y17	Z17	X18	Y18	Z18	X19	Y19	Z19	X20	Y20	Z20	X21	Y21	Z21	X22	Y22	Z22	X23	Y23	Z23	X24	Y24	Z24	X25	Y25	Z25	X26	Y26	Z26	X27	Y27	Z27	
139	2.316666666666667	0.3290364378658999	0.9243601691891098	0.5165901089467685	0.2930773768788789	0.4806304802285062	0.570212304332728	0.27315881616991095	0.07159664077922596	0.5468658001069796	0.27052876812435905	0.03475207571343351	0.4142158213083196	0.33531897223915796	0.04307273197711216	0.43119724506775264	0.2380512690044213	-0.0155362761563878	0.6067015604681036	0.10897223203157724	0.9124356730469957	0.5188973196195784	0.11721864855596996	0.49909771129871006	0.5470257955128035	0.11397166945739619	0.04490180538102443	0.554802920510362	0.11537158524967658	0.05754822207704779	0.3895465915503843	0.060453915930283014	0.06368661545071787	0.4132150561684267	0.12206275403831908	-0.031890303525724854	0.6192561498345882	0.2201508706192478	1.4891271427526442	0.5679723338823859	0.23690846071310523	1.751882062819395	0.5219402243903595	0.23420482637819073	1.6169291190874475	0.4291077561578914	0.38107208174445106	1.3872752314197123	0.5635319793800331	0.42735635785922416	1.1285620266227792	0.5534600172531566	0.4771173363574009	0.8967693454722471	0.5305935181020158	0.4818017970408568	0.7540021634391102	0.5053559959196169	0.4933280542136157	0.7386145177812318	0.495284571048703	0.46403587982296346	0.7452788616369612	0.5090944443654855	0.05844859988751183	1.3881689236816828	0.604347513088157	-0.00627146893482765	1.1565422511187404	0.544487272942159	-0.07793587013415562	0.9241891880125794	0.49244588064836703	-0.09190420990592156	0.8291848378189616	0.45998519603694793	-0.11905708968824932	0.7901958330738441	0.4920554004333304	-0.09470181059040317	0.8015932177368181	0.4799701320376295	
140	2.333333333333333	0.32908989095145136	0.9252856195493813	0.5148988443040917	0.29380590739094337	0.4804135584471328	0.5712211332952157	0.27367400430433	0.07162327515511947	0.5471160766479449	0.27054209772525983	0.03465286229232505	0.4142528292648634	0.3342346760930868	0.04099800451303626	0.4336468719859642	0.2379740950597479	-0.015289890369721965	0.6062760300216157	0.10907975782555046	0.9135560635177127	0.5186092640799892	0.11726194551115975	0.4995670868229081	0.5467384547344812	0.11407055786151353	0.04531438181876681	0.554802506231904	0.11540464541660189	0.0577285851081694	0.3894009815760749	0.06044238404232759	0.06358479426052584	0.41319625341377625	0.12208941643802838	-0.03180924668402873	0.6192720692941933	0.2204712477035724	1.4886942163945733	0.5697282301746059	0.23783336372075203	1.7506003142796869	0.521882883219288	0.2351603748368709	1.6166198493547668	0.4287924446439312	0.3800430789923335	1.3886653320956994	0.5656372904811403	0.42729085576944376	1.1289852587907845	0.5534632839847103	0.4749631758829248	0.8969206986017229	0.532589590153494	0.48097939460760364	0.7526868594485208	0.5083196405905792	0.49078521530733865	0.7356101668523563	0.4988490115665053	0.4613848923839751	0.7456034103094585	0.5117208407323784	0.057950844870239646	1.388085221456237	0.6053740700153804	-0.004976241682848978	1.1568233894848268	0.5445185729413587	-0.07628252755820461	0.9237322000762548	0.49575443313687617	-0.09137011246333948	0.8294265316942606	0.45971949365512754	-0.11835576870294401	0.7923981908051265	0.4906959774341904	-0.09260073543625535	0.8041391485641436	0.477419200094699	
141	2.35	0.32901526640261003	0.9261137401608313	0.5135295816542322	0.29444531956405917	0.48031944290959583	0.5720572162011176	0.2742486414640135	0.07164399643493369	0.5474473572948144	0.2705541542019556	0.03461432914394364	0.41428140421200305	0.33365921368768414	0.03942075242015271	0.4350630968540766	0.23793779384377076	-0.015214083133998826	0.6061516393539408	0.10910972512020568	0.9147128427325424	0.5184446291073892	0.11729080028211372	0.49992421182211944	0.5464152391920856	0.1141595875074598	0.045696241953774024	0.5548042464134182	0.11540372973308131	0.057840373640966475	0.38931663006096684	0.0603637917592586	0.06324244409131151	0.4131719399352569	0.12211152295637767	-0.031731506099771045	0.6192814057422124	0.22088410502865202	1.488078036982294	0.5719684285978521	0.23885391943907025	1.7492792635449799	0.5218052070901175	0.2359461431450306	1.6166281551897856	0.42781845126575524	0.37926270464458345	1.3904853717872467	0.5684247565948778	0.42718734737508407	1.1296719017671026	0.553440341235374	0.47258128015327155	0.8972727531630058	0.5334555474087627	0.4793026479800696	0.7521760101978036	0.5100601930381256	0.4880806435797249	0.7333158705688594	0.5020985919429642	0.45904280872601244	0.7458691418593995	0.5141777128925666	0.05709772208687243	1.3880222496381207	0.6071364959692749	-0.003381111224478232	1.1571540390117974	0.5445090281942329	-0.07451456263610112	0.9231302127990852	0.4990759883048982	-0.09086656251705655	0.8297377334897843	0.45916255050820853	-0.11758711957210125	0.7944346277646637	0.4883065600193137	-0.09147973581537758	0.8055893221824435	0.4761744455748193	
142	2.3666666666666667	0.32882758132884204	0.92684983582494	0.5124387434179135	0.2948972601325719	0.48040495870274896	0.5725941995576055	0.274862542761346	0.07165313974450853	0.5478656262284612	0.2705626821130675	0.03464404696008342	0.4142981940518316	0.33369839894014103	0.039022366045351004	0.43504647640375566	0.23795537034937206	-0.015338215704976857	0.6063259225852716	0.1090962004960957	0.915765947186788	0.5183437064712484	0.11730234325778144	0.5001231992974549	0.5462142785998387	0.11423775419929615	0.04603921588179596	0.5548087123657445	0.11536728978028626	0.05786271877772976	0.3893121261553283	0.06020238398093895	0.0625991353201581	0.41314849971389117	0.12212875908232661	-0.031663999820433796	0.6192883845263802	0.22133013796865458	1.4872012797447147	0.5743331968850581	0.23999308401943387	1.7479806226533385	0.5217152616674865	0.2364034038357256	1.6168590820817348	0.42683989664073546	0.3788033656273766	1.3923238542453364	0.5715536320694171	0.42705465303751233	1.130466713043878	0.5533867602080436	0.4698893328515248	0.8978257026367803	0.5325841010015538	0.4764899690236529	0.7527400193918565	0.5094575235313243	0.4852630215351079	0.7316070946098494	0.5047178301698766	0.45715514065144536	0.7461075917216413	0.5161089726340067	0.0560030680175025	1.3880567620015376	0.6093518067800802	-0.0016677835016847586	1.157344296667995	0.5444319167690649	-0.07291458470044337	0.9225100230581551	0.5021125785429394	-0.09022023363239576	0.829755808035907	0.45898741122664033	-0.11687032031680644	0.795803974533835	0.4861597771020589	-0.0910803810192031	0.8060812758406238	0.4762558304747255	
143	2.3833333333333333	0.32855308542154593	0.9275654102870895	0.5115700100601289	0.29510360637198446	0.4806831460652257	0.5727845251817025	0.2754578377548103	0.07162406293158331	0.5483763899613217	0.270565106415273	0.034714715606287444	0.41430020650856253	0.33431032422239804	0.04008948618513994	0.43354700311297445	0.23802952008779843	-0.015647986981764134	0.6067500438468924	0.10907475909395994	0.9166629135263432	0.5182543621577282	0.11731210657566649	0.500169442991116	0.5461507864583073	0.11430456858250244	0.046337484938106646	0.5548129684857863	0.11530496146487562	0.05779875369844291	0.3893716147050193	0.05997497224716215	0.061714300140297496	0.41313354988218387	0.12214233428676412	-0.03160903665955037	0.6193001181428976	0.2217449864739948	1.486121131406228	0.5764825618810467	0.241166779334284	1.7468368124398803	0.5216082799604674	0.23661489654916207	1.6170925693821496	0.42640237542719556	0.37863739484279135	1.3939591350459195	0.5748419383895624	0.42690527965911673	1.131269091752728	0.5533352703854901	0.4668599626956357	0.898698664347927	0.529965919873867	0.4727472537138914	0.7544666807440605	0.5058506804348815	0.4826526083867299	0.7304928742288156	0.5059551069660535	0.4557476199233532	0.7463132772819498	0.5172376514042373	0.05482307246003474	1.388212090119712	0.6117009344621714	-4.8472687315001306e-05	1.1572281430788836	0.5443215630059312	-0.07162452844862535	0.9219578220795288	0.5048950560291119	-0.08931132102805203	0.8292543720970836	0.4596855460361644	-0.11611030205239836	0.7964014855330448	0.48484668941064224	-0.09088124889857	0.8059986323085716	0.4772463430736166	
144	2.4	0.3282261203666108	0.9283544081842106	0.5108520325718366	0.295079802287341	0.48110755084794693	0.5726924814927318	0.2759563620815569	0.07151949183806365	0.5489653594596551	0.2705589948727018	0.03477966478347882	0.4142918412606677	0.33533175705981344	0.0422983892737539	0.4308918604630683	0.23815552874968512	-0.016109818740277084	0.607373159071034	0.10906249188736132	0.9174719476225928	0.518160491848293	0.11733477088571757	0.5000759584742392	0.5461477464611193	0.11435955550678288	0.046584752318355904	0.5548140574302727	0.11522922398821248	0.05766575568291839	0.3894737136235523	0.0597320362223477	0.06077489017024315	0.41313383974477863	0.12215517786970786	-0.03156466290033601	0.6193223679494299	0.22206749795846772	1.4849497591853271	0.5781008877678163	0.2422029360330331	1.7460269422180266	0.5214800508714987	0.23677606354698327	1.617065009403623	0.4266877475807231	0.3787103025158861	1.3953260328587227	0.5779092509177268	0.4267593515949367	1.1319983715371058	0.5533329405896467	0.46364547638636866	0.8999415559586877	0.52627211489089	0.4684308099226707	0.756920381671363	0.4995054690296679	0.4804626698712168	0.7300833076717275	0.5053849292518794	0.4548322980761079	0.7464346653394903	0.517450231210146	0.053721899723852176	1.3884737814774777	0.613860120380036	0.0012310900142489807	1.1567295546348424	0.544241608202655	-0.07058590162834855	0.9215227978044886	0.5075417194054382	-0.088127087595921	0.8282334694312937	0.46138902203284154	-0.1151205172517012	0.7963248777225661	0.48446577731544754	-0.09033083763754177	0.8057855007303384	0.4784039183564738	
145	2.4166666666666665	0.3279021268183217	0.9292361965233611	0.5101784008026812	0.29492902597110504	0.48157548734310135	0.5724967975229058	0.27628565481577066	0.07131102778823203	0.5495901149721845	0.27054528993377674	0.034804052904874636	0.4142860548879611	0.3364756508555172	0.044850803015572725	0.4278369490982346	0.23832163206319598	-0.016690773753644174	0.6081544045983979	0.1090583550367678	0.918293531121648	0.5180637643203997	0.11737065306341805	0.49988535452900834	0.5461434069761769	0.11440052283066052	0.046770115627392625	0.5548133216270522	0.11515281452080249	0.057498424112438204	0.38960620942041085	0.059543810282878924	0.06004777768399476	0.413150180804218	0.12216765103503362	-0.03153168493834218	0.6193513861278961	0.2222551381921205	1.483759290597539	0.5789426340578347	0.24295087370429516	1.7456493925312384	0.5213334677983873	0.2370252501461388	1.6166426456393925	0.4276515722386997	0.37891109422889957	1.3964139698755769	0.580038599656721	0.42663841767554805	1.132562219813824	0.5534063020635294	0.46054870499570755	0.9014356966663023	0.5224477327665991	0.46380558183671716	0.7594085121183924	0.4914319774955618	0.4786118525744353	0.7304655691088132	0.5030868704823502	0.45444958533702084	0.7463501187423504	0.5169627044975951	0.052865225543165716	1.388810660906989	0.6155114427332011	0.0019777072682546715	1.1558825525427483	0.5442012977192908	-0.06965007576044195	0.9211843813504856	0.510133193183069	-0.08673304065252299	0.8267273930084452	0.4639738962299894	-0.11384713109351054	0.7955803844665288	0.4849883330676619	-0.08918800431489773	0.805821906218221	0.4790383487390333	
